<svg xmlns="http://www.w3.org/2000/svg" viewBox="0 0 585 125.9"><defs><style>.cls-1{fill:#11418a;}.cls-2{fill:#fff;}.cls-3{fill:#f7931b;}</style></defs><title>glim nwAsset 1</title><g id="Layer_2" data-name="Layer 2"><g id="Layer_1-2" data-name="Layer 1"><g id="Layer_2-2" data-name="Layer 2"><g id="Layer_1-2-2" data-name="Layer 1-2"><rect class="cls-1" width="125.9" height="125.9" rx="24.77"/><path class="cls-2" d="M99.2,49.46A36.25,36.25,0,0,1,63,85.7h-.2a36.25,36.25,0,0,1,0-72.49V28.27a21.16,21.16,0,0,0,0,42.31H63A21.16,21.16,0,0,0,84.13,49.46Z"/><path class="cls-2" d="M91.17,87.62v18.07a60.4,60.4,0,0,1-56.92-.26V87.23a45,45,0,0,0,28.5,10.3H63A44.92,44.92,0,0,0,91.17,87.62Z"/><path class="cls-3" d="M73.53,49.46A10.58,10.58,0,0,1,63,60h-.2a10.58,10.58,0,0,1,0-21.15H63A10.57,10.57,0,0,1,73.53,49.46Z"/><path class="cls-3" d="M94.69,28.27a10.67,10.67,0,0,1-.41,2.92,10.58,10.58,0,1,1,.41-2.92Z"/><path class="cls-2" d="M185.65,41.23a14.42,14.42,0,0,1,5.62,5.17V39.92h14v45.7a25.84,25.84,0,0,1-2.51,11.44,19,19,0,0,1-7.64,8.17,24.7,24.7,0,0,1-12.76,3q-10.17,0-16.49-4.83a18.08,18.08,0,0,1-7.22-13h13.87a6.6,6.6,0,0,0,3.12,4.14,11.31,11.31,0,0,0,6.06,1.53,9.51,9.51,0,0,0,6.93-2.51c1.72-1.67,2.59-4.34,2.59-8V79.11a15.64,15.64,0,0,1-5.66,5.21,17.06,17.06,0,0,1-8.45,2,18.74,18.74,0,0,1-10.27-2.89,20.09,20.09,0,0,1-7.26-8.27A27.77,27.77,0,0,1,157,62.75a27.43,27.43,0,0,1,2.67-12.41,20,20,0,0,1,7.26-8.21,19,19,0,0,1,10.26-2.86A17.57,17.57,0,0,1,185.65,41.23Zm2.71,13.3a9.83,9.83,0,0,0-13.92-.32l-.27.27q-2.91,3-2.91,8.24A11.56,11.56,0,0,0,174.17,71a9.78,9.78,0,0,0,13.82.42l.37-.38q2.91-3,2.91-8.28C191.27,59.3,190.3,56.54,188.36,54.53Z"/><path class="cls-2" d="M225.4,25V85.68h-14V25Z"/><path class="cls-2" d="M232.5,33a7,7,0,0,1-2.34-5.38,7.11,7.11,0,0,1,2.34-5.45,9.37,9.37,0,0,1,12,0,7.13,7.13,0,0,1,2.33,5.41A7.05,7.05,0,0,1,244.48,33a8.38,8.38,0,0,1-5.95,2.21A8.47,8.47,0,0,1,232.5,33Zm13,6.9V85.67h-14V39.92Z"/><path class="cls-2" d="M323.57,44.6q5,5.16,5,14.35V85.7H314.66V60.88c0-3-.77-5.25-2.33-6.86a9.79,9.79,0,0,0-12.89,0,9.43,9.43,0,0,0-2.33,6.86V85.74H283.16V60.91a9.48,9.48,0,0,0-2.33-6.85,8.57,8.57,0,0,0-6.45-2.42,8.46,8.46,0,0,0-6.44,2.42,9.67,9.67,0,0,0-2.33,6.85V85.77h-14V39.92h14v5.75a14.9,14.9,0,0,1,5.58-4.56A17.61,17.61,0,0,1,279,39.43a19,19,0,0,1,9.22,2.21A15.88,15.88,0,0,1,294.57,48,18.42,18.42,0,0,1,301,41.81a17.57,17.57,0,0,1,9-2.38Q318.53,39.43,323.57,44.6Z"/><path class="cls-2" d="M342.32,84.3a18.19,18.19,0,0,1-7.39-5.62,14.64,14.64,0,0,1-3-8h13.86A5.37,5.37,0,0,0,348,74.55,8,8,0,0,0,352.8,76a6.83,6.83,0,0,0,4.06-1,3.12,3.12,0,0,0,1.44-2.66,3.06,3.06,0,0,0-2.07-2.91,41,41,0,0,0-6.65-2.07,62.74,62.74,0,0,1-8.2-2.42,14.23,14.23,0,0,1-5.66-4,11,11,0,0,1-2.38-7.43,12.66,12.66,0,0,1,2.17-7.18,14.69,14.69,0,0,1,6.4-5.13,24.38,24.38,0,0,1,10-1.88q8.61,0,13.58,4.26a16.61,16.61,0,0,1,5.7,11.32h-13a5.51,5.51,0,0,0-2.06-3.77,7.28,7.28,0,0,0-4.64-1.38,6.35,6.35,0,0,0-3.77.94,3,3,0,0,0-1.32,2.58,3.16,3.16,0,0,0,2.07,3,33.17,33.17,0,0,0,6.59,1.93,72.2,72.2,0,0,1,8.28,2.59A14.15,14.15,0,0,1,369,64.86a11.57,11.57,0,0,1,2.5,7.58,12,12,0,0,1-2.25,7.18,14.91,14.91,0,0,1-6.48,5,25,25,0,0,1-9.81,1.8A26.09,26.09,0,0,1,342.32,84.3Z"/><path class="cls-3" d="M441.75,39.92,429.34,85.7H413.86L406.64,56l-7.47,29.7H383.75L371.27,39.92h14l6.48,32.74,7.71-32.74h14.85l7.8,32.57,6.39-32.57Z"/><path class="cls-3" d="M442.86,50.34a19.93,19.93,0,0,1,7.26-8.21,18.93,18.93,0,0,1,10.26-2.86,17.66,17.66,0,0,1,8.49,2,14.56,14.56,0,0,1,5.62,5.17V39.92h14V85.7h-14V79.22a15.11,15.11,0,0,1-5.71,5.17,17.53,17.53,0,0,1-8.49,2,18.58,18.58,0,0,1-10.17-2.92,20,20,0,0,1-7.26-8.27,27.63,27.63,0,0,1-2.67-12.42A27.43,27.43,0,0,1,442.86,50.34Zm28.72,4.19a9.86,9.86,0,0,0-13.94-.32l-.26.27c-2,2-2.93,4.76-2.93,8.27s1,6.28,2.93,8.28a9.77,9.77,0,0,0,13.82.41l.38-.37a11.54,11.54,0,0,0,2.91-8.28C474.49,59.3,473.52,56.54,471.58,54.53Z"/><path class="cls-3" d="M515.18,72.57l9.92-32.65H540L523.79,85.7H506.48L490.24,39.92h15Z"/><path class="cls-3" d="M584.78,66.2H553.06a9.52,9.52,0,0,0,2.76,6.53A8.38,8.38,0,0,0,561.76,75c3.5,0,5.94-1.48,7.3-4.43H584a20.41,20.41,0,0,1-4.13,8.12,20.69,20.69,0,0,1-7.51,5.66,24,24,0,0,1-10.09,2.07,24.4,24.4,0,0,1-12-2.88A20.39,20.39,0,0,1,542,75.28a25.3,25.3,0,0,1-3-12.47A25.73,25.73,0,0,1,542,50.34a20.19,20.19,0,0,1,8.17-8.21A26.6,26.6,0,0,1,574,42.07a20.07,20.07,0,0,1,8.08,8,24.23,24.23,0,0,1,2.91,12A35.65,35.65,0,0,1,584.78,66.2Zm-14.11-7.79a7.22,7.22,0,0,0-2.46-5.75A9.08,9.08,0,0,0,562,50.51a8.86,8.86,0,0,0-5.95,2.07,9.07,9.07,0,0,0-3,5.8Z"/></g></g></g></g></svg>