<svg xmlns="http://www.w3.org/2000/svg" viewBox="0 0 848.31 182.57"><defs><style>.cls-1{fill:#11418a;}.cls-2{fill:#fff;}.cls-3{fill:#f7931b;}</style></defs><title>lockup</title><g id="Layer_2" data-name="Layer 2"><g id="Layer_1-2" data-name="Layer 1"><rect class="cls-1" width="182.57" height="182.57" rx="35.92" ry="35.92"/><path class="cls-2" d="M143.85,71.72a52.57,52.57,0,0,1-52.56,52.56H91A52.56,52.56,0,0,1,91,19.16V41a30.68,30.68,0,0,0,0,61.35h.34A30.69,30.69,0,0,0,122,71.72Z"/><path class="cls-2" d="M132.2,127.06v26.2a87.56,87.56,0,0,1-82.53-.37v-26.4A65.14,65.14,0,0,0,91,141.43h.34A65.14,65.14,0,0,0,132.2,127.06Z"/><path class="cls-3" d="M106.63,71.72A15.34,15.34,0,0,1,91.29,87.06H91a15.34,15.34,0,0,1,0-30.67h.34A15.34,15.34,0,0,1,106.63,71.72Z"/><path class="cls-3" d="M137.31,41a15.12,15.12,0,0,1-.6,4.23,15.32,15.32,0,1,1,.6-4.23Z"/><path class="cls-1" d="M269.22,59.79a21,21,0,0,1,8.15,7.5v-9.4h20.35v66.27a37.43,37.43,0,0,1-3.63,16.59A27.62,27.62,0,0,1,283,152.59q-7.42,4.4-18.5,4.4-14.74,0-23.91-7a26.24,26.24,0,0,1-10.47-18.85h20.11a9.59,9.59,0,0,0,4.52,6,16.44,16.44,0,0,0,8.8,2.21c4.2,0,7.56-1.21,10.05-3.63s3.75-6.29,3.75-11.6v-9.4a22.53,22.53,0,0,1-8.21,7.55,24.7,24.7,0,0,1-12.25,2.92A27.17,27.17,0,0,1,242,121a29.12,29.12,0,0,1-10.53-12,40,40,0,0,1-3.87-18,39.64,39.64,0,0,1,3.87-18A28.81,28.81,0,0,1,242,61.1a27.53,27.53,0,0,1,14.87-4.16A25.57,25.57,0,0,1,269.22,59.79Zm3.93,19.28A14.28,14.28,0,0,0,252.57,79q-4.23,4.33-4.23,11.95T252.57,103a14.17,14.17,0,0,0,20.58.06q4.22-4.39,4.22-12T273.15,79.07Z"/><path class="cls-1" d="M326.86,36.24v88H306.52v-88Z"/><path class="cls-1" d="M337.15,47.84a10.22,10.22,0,0,1-3.39-7.8,10.35,10.35,0,0,1,3.39-7.91A12.35,12.35,0,0,1,345.9,29a12.16,12.16,0,0,1,8.62,3.15A10.35,10.35,0,0,1,357.91,40a10.22,10.22,0,0,1-3.39,7.8A12.16,12.16,0,0,1,345.9,51,12.35,12.35,0,0,1,337.15,47.84Zm18.86,10v66.39H335.67V57.89Z"/><path class="cls-1" d="M469.21,64.67q7.32,7.5,7.32,20.82v38.79H456.3v-36q0-6.44-3.39-9.94t-9.34-3.51q-5.94,0-9.34,3.51t-3.39,9.94v36.05H410.62v-36q0-6.44-3.39-9.94t-9.34-3.51q-6,0-9.34,3.51t-3.39,9.94v36.05H364.81V57.89h20.35v8.33a21.79,21.79,0,0,1,8.09-6.61,25.48,25.48,0,0,1,11.3-2.43,27.47,27.47,0,0,1,13.38,3.21,23,23,0,0,1,9.23,9.16,26.66,26.66,0,0,1,9.39-8.92,25.41,25.41,0,0,1,13-3.45Q461.9,57.18,469.21,64.67Z"/><path class="cls-1" d="M496.4,122.25a26.36,26.36,0,0,1-10.71-8.15,21.34,21.34,0,0,1-4.4-11.6h20.1a7.75,7.75,0,0,0,3.21,5.6,11.44,11.44,0,0,0,7,2.14,10,10,0,0,0,5.89-1.49,4.55,4.55,0,0,0,2.08-3.87,4.46,4.46,0,0,0-3-4.22,60.37,60.37,0,0,0-9.64-3,90.46,90.46,0,0,1-11.89-3.51,20.58,20.58,0,0,1-8.21-5.83q-3.45-4-3.45-10.77a18.28,18.28,0,0,1,3.15-10.41,21.25,21.25,0,0,1,9.28-7.44,35.57,35.57,0,0,1,14.57-2.73q12.49,0,19.69,6.18a24.07,24.07,0,0,1,8.27,16.42h-18.8a8,8,0,0,0-3-5.47,10.53,10.53,0,0,0-6.72-2,9.21,9.21,0,0,0-5.47,1.37,4.36,4.36,0,0,0-1.91,3.74c0,1.91,1,3.33,3,4.29A48.47,48.47,0,0,0,515,84.3a103.6,103.6,0,0,1,12,3.75,20.66,20.66,0,0,1,8.15,6q3.51,4.09,3.63,11a17.46,17.46,0,0,1-3.27,10.41,21.58,21.58,0,0,1-9.4,7.2,36.08,36.08,0,0,1-14.22,2.62A38,38,0,0,1,496.4,122.25Z"/><path class="cls-3" d="M640.59,57.89l-18,66.39H600.14L589.67,81.21l-10.83,43.07H556.48L538.39,57.89h20.35l9.4,47.47,11.18-47.47h21.53l11.31,47.23,9.27-47.23Z"/><path class="cls-3" d="M642.2,73a28.78,28.78,0,0,1,10.52-11.9,27.57,27.57,0,0,1,14.88-4.16,25.6,25.6,0,0,1,12.31,2.85,21,21,0,0,1,8.15,7.5v-9.4H708.4v66.39H688.06v-9.4a21.93,21.93,0,0,1-8.27,7.49,25.46,25.46,0,0,1-12.31,2.86A27,27,0,0,1,652.72,121a29.1,29.1,0,0,1-10.52-12,40,40,0,0,1-3.87-18A39.64,39.64,0,0,1,642.2,73Zm41.64,6.07A14.29,14.29,0,0,0,663.25,79Q659,83.35,659,91T663.25,103a14.18,14.18,0,0,0,20.59.06q4.21-4.39,4.22-12T683.84,79.07Z"/><path class="cls-3" d="M747.07,105.24l14.39-47.35h21.66l-23.56,66.39h-25.1L710.9,57.89h21.77Z"/><path class="cls-3" d="M848,96h-46q.48,6.2,4,9.46a12.17,12.17,0,0,0,8.62,3.27q7.62,0,10.59-6.42h21.65a29.67,29.67,0,0,1-6,11.77,30,30,0,0,1-10.89,8.21,34.84,34.84,0,0,1-14.63,3,35.53,35.53,0,0,1-17.37-4.17A29.61,29.61,0,0,1,786,109.17a36.72,36.72,0,0,1-4.28-18.09A37.1,37.1,0,0,1,785.91,73a29.25,29.25,0,0,1,11.84-11.9A38.59,38.59,0,0,1,832.37,61a29.12,29.12,0,0,1,11.72,11.54A35.11,35.11,0,0,1,848.31,90,51.4,51.4,0,0,1,848,96Zm-20.46-11.3a10.46,10.46,0,0,0-3.57-8.33A13.14,13.14,0,0,0,815,73.24a12.91,12.91,0,0,0-8.63,3A13.23,13.23,0,0,0,802,84.66Z"/></g></g></svg>