<svg xmlns="http://www.w3.org/2000/svg" viewBox="0 0 182.57 182.57"><defs><style>.cls-1{fill:#11418a;}.cls-2{fill:#fff;}.cls-3{fill:#f7931b;}</style></defs><title>Glims</title><g id="Layer_2" data-name="Layer 2"><g id="Layer_1-2" data-name="Layer 1"><rect class="cls-1" width="182.57" height="182.57" rx="35.92" ry="35.92"/><path class="cls-2" d="M143.85,71.72a52.57,52.57,0,0,1-52.56,52.56H91A52.56,52.56,0,0,1,91,19.16V41a30.68,30.68,0,0,0,0,61.35h.34A30.69,30.69,0,0,0,122,71.72Z"/><path class="cls-2" d="M132.2,127.06v26.2a87.56,87.56,0,0,1-82.53-.37v-26.4A65.14,65.14,0,0,0,91,141.43h.34A65.14,65.14,0,0,0,132.2,127.06Z"/><path class="cls-3" d="M106.63,71.72A15.34,15.34,0,0,1,91.29,87.06H91a15.34,15.34,0,0,1,0-30.67h.34A15.34,15.34,0,0,1,106.63,71.72Z"/><path class="cls-3" d="M137.31,41a15.12,15.12,0,0,1-.6,4.23,15.32,15.32,0,1,1,.6-4.23Z"/></g></g></svg>